# xmcd
#
# Track frame offsets: 
#        150
#        14256
#        32747
#        48119
#        60125
#        74230
#        86807
#        102509
#        117050
#        129520
#        140348
#        152067
#        161564
#        174839
#        187159
#        199767
#        211982
#        223439
#        247466
#        263765
#        278057
#        290717
#        309886
#        321448
#
# Disc length: 4463 seconds
#
# Revision: 3
# Processed by: cddbd v1.5.2PL0 Copyright (c) Steve Scherf et al.
# Submitted via: ExactAudioCopyFreeDBPlugin 1.0
#
DISCID=70116d18
DTITLE=Lowell Fulson - (1966-1969) The Tramp Years
DYEAR=2000
DGENRE=Blues
TTITLE0=Tramp (1966, KENT 456)
TTITLE1=I'm Sinking (1967, KENT 463)
TTITLE2=No Hard Feeling (1967, KENT 467)
TTITLE3=Get Your Game Up Tight (1967, KENT LP 520)
TTITLE4=Goin' Home (1967, KENT LP 520)
TTITLE5=Two Way Wishing (1967, KENT LP 520)
TTITLE6=Back Door Key (1967, KENT LP 520)
TTITLE7=Make a Little Love (1967, KENT 463)
TTITLE8=I Wanna Spend Christmas with You (Part 1) (1967, KENT 477)
TTITLE9=I Wanna Spend Christmas with You (Part 2) (1967, KENT 477)
TTITLE10=The Thing (1967, KENT 471)
TTITLE11=Everything That I Took Away (1967, KENT Unissued)
TTITLE12=Lost Lover (1967, KENT Unissued)
TTITLE13=It Takes Money (1967, KENT Unissued)
TTITLE14=Don't Bother Me (1967, KENT Unissued)
TTITLE15=Little Girl (1967, KENT Unissued)
TTITLE16=Hobo Meetin' (Tramp Meetin') (1967, KENT 474)
TTITLE17=Blues Pain (1968, KENT 489)
TTITLE18=What the Heck (1968, KENT 489)
TTITLE19=The Sweetest Thing (1968, KENT 497)
TTITLE20=Lovin' Touch (1969, KENT 505)
TTITLE21=Price for Love (1969, KENT 505)
TTITLE22=Blues Soul (1967, KENT Unissued)
TTITLE23=Pico (1966, KENT 456)
EXTD=Lowell Fulson (1921/1999): guitar, vocals\nRecorded for Kent Reco
EXTD=rds in Los Angeles US-CA, 1966/1968.\nTracks 12-16,23 previously 
EXTD=unissued.\nCompiled by John Broven.\nTransfers from original mast
EXTD=er tapes.\nMastered by Nick Robbins at Sound Mastering Ltd.\nCD: 
EXTD=Ace CDCHD 755 (2000-05-16), UPC 029667175524.
EXTT0=(Jimmy McCracklin/Lowell Fulson)
EXTT1=(Lowell Fulson)
EXTT2=(Lowell Fulson)
EXTT3=(Jules Taub/Joe Josea)
EXTT4=(Lowell Fulson/Bill Lazerus)
EXTT5=(Joe Josea)
EXTT6=(Joe Josea)
EXTT7=(Jimmy Holiday/Mike Akopoff)
EXTT8=(Lowell Fulson)
EXTT9=(Lowell Fulson)
EXTT10=(Lowell Fulson)
EXTT11=(Lowell Fulson)
EXTT12=(Lowell Fulson)
EXTT13=(Lowell Fulson/Fats Washington)
EXTT14=(Lowell Fulson)
EXTT15=(Fats Washington)
EXTT16=(Lowell Fulson)
EXTT17=(Lowell Fulson)
EXTT18=(Lowell Fulson)
EXTT19=(Lowell Fulson)
EXTT20=(Lowell Fulson/Beulah Facyson)
EXTT21=(Lowell Fulson)
EXTT22=(Fats Washington/Lowell Fulson)
EXTT23=(Jimmy McCracklin/Lowell Fulson)
PLAYORDER=
